<mxfile host="Electron" modified="2024-04-25T08:51:14.786Z" agent="Mozilla/5.0 (X11; Linux x86_64) AppleWebKit/537.36 (KHTML, like Gecko) draw.io/24.2.5 Chrome/120.0.6099.109 Electron/28.1.0 Safari/537.36" etag="tRVLMVRa0M4ACjzpEyc8" version="24.2.5" type="device">
  <diagram name="Page-1" id="kBDW-BHAB0Rtd6Xr1ce1">
    <mxGraphModel dx="3064" dy="1943" grid="1" gridSize="10" guides="1" tooltips="1" connect="1" arrows="1" fold="1" page="1" pageScale="1" pageWidth="850" pageHeight="1100" math="0" shadow="0">
      <root>
        <mxCell id="0" />
        <mxCell id="1" parent="0" />
        <mxCell id="7A3FjcBQy7pyen3YVcaV-83" value="OrbisSocialis" style="shape=table;startSize=30;container=1;collapsible=1;childLayout=tableLayout;fixedRows=1;rowLines=0;fontStyle=1;align=center;resizeLast=1;html=1;" parent="1" vertex="1">
          <mxGeometry x="425" y="280" width="180" height="150" as="geometry" />
        </mxCell>
        <mxCell id="7A3FjcBQy7pyen3YVcaV-84" value="" style="shape=tableRow;horizontal=0;startSize=0;swimlaneHead=0;swimlaneBody=0;fillColor=none;collapsible=0;dropTarget=0;points=[[0,0.5],[1,0.5]];portConstraint=eastwest;top=0;left=0;right=0;bottom=1;" parent="7A3FjcBQy7pyen3YVcaV-83" vertex="1">
          <mxGeometry y="30" width="180" height="30" as="geometry" />
        </mxCell>
        <mxCell id="7A3FjcBQy7pyen3YVcaV-85" value="PK" style="shape=partialRectangle;connectable=0;fillColor=none;top=0;left=0;bottom=0;right=0;fontStyle=1;overflow=hidden;whiteSpace=wrap;html=1;" parent="7A3FjcBQy7pyen3YVcaV-84" vertex="1">
          <mxGeometry width="30" height="30" as="geometry">
            <mxRectangle width="30" height="30" as="alternateBounds" />
          </mxGeometry>
        </mxCell>
        <mxCell id="7A3FjcBQy7pyen3YVcaV-86" value="&lt;span style=&quot;font-weight: 400;&quot;&gt;id&lt;/span&gt;" style="shape=partialRectangle;connectable=0;fillColor=none;top=0;left=0;bottom=0;right=0;align=left;spacingLeft=6;fontStyle=5;overflow=hidden;whiteSpace=wrap;html=1;" parent="7A3FjcBQy7pyen3YVcaV-84" vertex="1">
          <mxGeometry x="30" width="150" height="30" as="geometry">
            <mxRectangle width="150" height="30" as="alternateBounds" />
          </mxGeometry>
        </mxCell>
        <mxCell id="7A3FjcBQy7pyen3YVcaV-87" value="" style="shape=tableRow;horizontal=0;startSize=0;swimlaneHead=0;swimlaneBody=0;fillColor=none;collapsible=0;dropTarget=0;points=[[0,0.5],[1,0.5]];portConstraint=eastwest;top=0;left=0;right=0;bottom=0;" parent="7A3FjcBQy7pyen3YVcaV-83" vertex="1">
          <mxGeometry y="60" width="180" height="30" as="geometry" />
        </mxCell>
        <mxCell id="7A3FjcBQy7pyen3YVcaV-88" value="" style="shape=partialRectangle;connectable=0;fillColor=none;top=0;left=0;bottom=0;right=0;editable=1;overflow=hidden;whiteSpace=wrap;html=1;" parent="7A3FjcBQy7pyen3YVcaV-87" vertex="1">
          <mxGeometry width="30" height="30" as="geometry">
            <mxRectangle width="30" height="30" as="alternateBounds" />
          </mxGeometry>
        </mxCell>
        <mxCell id="7A3FjcBQy7pyen3YVcaV-89" value="&lt;span style=&quot;color: rgb(240, 240, 240); font-family: Helvetica; font-size: 12px; font-style: normal; font-variant-ligatures: normal; font-variant-caps: normal; font-weight: 400; letter-spacing: normal; orphans: 2; text-align: left; text-indent: 0px; text-transform: none; widows: 2; word-spacing: 0px; -webkit-text-stroke-width: 0px; white-space: normal; background-color: rgb(27, 29, 30); float: none; display: inline !important;&quot;&gt;domain_name&lt;/span&gt;" style="shape=partialRectangle;connectable=0;fillColor=none;top=0;left=0;bottom=0;right=0;align=left;spacingLeft=6;overflow=hidden;whiteSpace=wrap;html=1;" parent="7A3FjcBQy7pyen3YVcaV-87" vertex="1">
          <mxGeometry x="30" width="150" height="30" as="geometry">
            <mxRectangle width="150" height="30" as="alternateBounds" />
          </mxGeometry>
        </mxCell>
        <mxCell id="7A3FjcBQy7pyen3YVcaV-90" value="" style="shape=tableRow;horizontal=0;startSize=0;swimlaneHead=0;swimlaneBody=0;fillColor=none;collapsible=0;dropTarget=0;points=[[0,0.5],[1,0.5]];portConstraint=eastwest;top=0;left=0;right=0;bottom=0;" parent="7A3FjcBQy7pyen3YVcaV-83" vertex="1">
          <mxGeometry y="90" width="180" height="30" as="geometry" />
        </mxCell>
        <mxCell id="7A3FjcBQy7pyen3YVcaV-91" value="" style="shape=partialRectangle;connectable=0;fillColor=none;top=0;left=0;bottom=0;right=0;editable=1;overflow=hidden;whiteSpace=wrap;html=1;" parent="7A3FjcBQy7pyen3YVcaV-90" vertex="1">
          <mxGeometry width="30" height="30" as="geometry">
            <mxRectangle width="30" height="30" as="alternateBounds" />
          </mxGeometry>
        </mxCell>
        <mxCell id="7A3FjcBQy7pyen3YVcaV-92" value="Row 2" style="shape=partialRectangle;connectable=0;fillColor=none;top=0;left=0;bottom=0;right=0;align=left;spacingLeft=6;overflow=hidden;whiteSpace=wrap;html=1;" parent="7A3FjcBQy7pyen3YVcaV-90" vertex="1">
          <mxGeometry x="30" width="150" height="30" as="geometry">
            <mxRectangle width="150" height="30" as="alternateBounds" />
          </mxGeometry>
        </mxCell>
        <mxCell id="7A3FjcBQy7pyen3YVcaV-93" value="" style="shape=tableRow;horizontal=0;startSize=0;swimlaneHead=0;swimlaneBody=0;fillColor=none;collapsible=0;dropTarget=0;points=[[0,0.5],[1,0.5]];portConstraint=eastwest;top=0;left=0;right=0;bottom=0;" parent="7A3FjcBQy7pyen3YVcaV-83" vertex="1">
          <mxGeometry y="120" width="180" height="30" as="geometry" />
        </mxCell>
        <mxCell id="7A3FjcBQy7pyen3YVcaV-94" value="" style="shape=partialRectangle;connectable=0;fillColor=none;top=0;left=0;bottom=0;right=0;editable=1;overflow=hidden;whiteSpace=wrap;html=1;" parent="7A3FjcBQy7pyen3YVcaV-93" vertex="1">
          <mxGeometry width="30" height="30" as="geometry">
            <mxRectangle width="30" height="30" as="alternateBounds" />
          </mxGeometry>
        </mxCell>
        <mxCell id="7A3FjcBQy7pyen3YVcaV-95" value="Row 3" style="shape=partialRectangle;connectable=0;fillColor=none;top=0;left=0;bottom=0;right=0;align=left;spacingLeft=6;overflow=hidden;whiteSpace=wrap;html=1;" parent="7A3FjcBQy7pyen3YVcaV-93" vertex="1">
          <mxGeometry x="30" width="150" height="30" as="geometry">
            <mxRectangle width="150" height="30" as="alternateBounds" />
          </mxGeometry>
        </mxCell>
        <mxCell id="7A3FjcBQy7pyen3YVcaV-33" value="Account" style="shape=table;startSize=30;container=1;collapsible=1;childLayout=tableLayout;fixedRows=1;rowLines=0;fontStyle=1;align=center;resizeLast=1;html=1;" parent="1" vertex="1">
          <mxGeometry x="-260" y="60" width="180" height="480" as="geometry" />
        </mxCell>
        <mxCell id="7A3FjcBQy7pyen3YVcaV-34" value="" style="shape=tableRow;horizontal=0;startSize=0;swimlaneHead=0;swimlaneBody=0;fillColor=none;collapsible=0;dropTarget=0;points=[[0,0.5],[1,0.5]];portConstraint=eastwest;top=0;left=0;right=0;bottom=1;" parent="7A3FjcBQy7pyen3YVcaV-33" vertex="1">
          <mxGeometry y="30" width="180" height="30" as="geometry" />
        </mxCell>
        <mxCell id="7A3FjcBQy7pyen3YVcaV-35" value="PK" style="shape=partialRectangle;connectable=0;fillColor=none;top=0;left=0;bottom=0;right=0;fontStyle=1;overflow=hidden;whiteSpace=wrap;html=1;" parent="7A3FjcBQy7pyen3YVcaV-34" vertex="1">
          <mxGeometry width="30" height="30" as="geometry">
            <mxRectangle width="30" height="30" as="alternateBounds" />
          </mxGeometry>
        </mxCell>
        <mxCell id="7A3FjcBQy7pyen3YVcaV-36" value="&lt;span style=&quot;font-weight: 400;&quot;&gt;id&lt;/span&gt;" style="shape=partialRectangle;connectable=0;fillColor=none;top=0;left=0;bottom=0;right=0;align=left;spacingLeft=6;fontStyle=5;overflow=hidden;whiteSpace=wrap;html=1;" parent="7A3FjcBQy7pyen3YVcaV-34" vertex="1">
          <mxGeometry x="30" width="150" height="30" as="geometry">
            <mxRectangle width="150" height="30" as="alternateBounds" />
          </mxGeometry>
        </mxCell>
        <mxCell id="7A3FjcBQy7pyen3YVcaV-48" style="shape=tableRow;horizontal=0;startSize=0;swimlaneHead=0;swimlaneBody=0;fillColor=none;collapsible=0;dropTarget=0;points=[[0,0.5],[1,0.5]];portConstraint=eastwest;top=0;left=0;right=0;bottom=0;" parent="7A3FjcBQy7pyen3YVcaV-33" vertex="1">
          <mxGeometry y="60" width="180" height="30" as="geometry" />
        </mxCell>
        <mxCell id="7A3FjcBQy7pyen3YVcaV-49" style="shape=partialRectangle;connectable=0;fillColor=none;top=0;left=0;bottom=0;right=0;editable=1;overflow=hidden;whiteSpace=wrap;html=1;" parent="7A3FjcBQy7pyen3YVcaV-48" vertex="1">
          <mxGeometry width="30" height="30" as="geometry">
            <mxRectangle width="30" height="30" as="alternateBounds" />
          </mxGeometry>
        </mxCell>
        <mxCell id="7A3FjcBQy7pyen3YVcaV-50" value="created_at" style="shape=partialRectangle;connectable=0;fillColor=none;top=0;left=0;bottom=0;right=0;align=left;spacingLeft=6;overflow=hidden;whiteSpace=wrap;html=1;" parent="7A3FjcBQy7pyen3YVcaV-48" vertex="1">
          <mxGeometry x="30" width="150" height="30" as="geometry">
            <mxRectangle width="150" height="30" as="alternateBounds" />
          </mxGeometry>
        </mxCell>
        <mxCell id="7A3FjcBQy7pyen3YVcaV-69" style="shape=tableRow;horizontal=0;startSize=0;swimlaneHead=0;swimlaneBody=0;fillColor=none;collapsible=0;dropTarget=0;points=[[0,0.5],[1,0.5]];portConstraint=eastwest;top=0;left=0;right=0;bottom=0;" parent="7A3FjcBQy7pyen3YVcaV-33" vertex="1">
          <mxGeometry y="90" width="180" height="30" as="geometry" />
        </mxCell>
        <mxCell id="7A3FjcBQy7pyen3YVcaV-70" style="shape=partialRectangle;connectable=0;fillColor=none;top=0;left=0;bottom=0;right=0;editable=1;overflow=hidden;whiteSpace=wrap;html=1;" parent="7A3FjcBQy7pyen3YVcaV-69" vertex="1">
          <mxGeometry width="30" height="30" as="geometry">
            <mxRectangle width="30" height="30" as="alternateBounds" />
          </mxGeometry>
        </mxCell>
        <mxCell id="7A3FjcBQy7pyen3YVcaV-71" value="modified_at" style="shape=partialRectangle;connectable=0;fillColor=none;top=0;left=0;bottom=0;right=0;align=left;spacingLeft=6;overflow=hidden;whiteSpace=wrap;html=1;" parent="7A3FjcBQy7pyen3YVcaV-69" vertex="1">
          <mxGeometry x="30" width="150" height="30" as="geometry">
            <mxRectangle width="150" height="30" as="alternateBounds" />
          </mxGeometry>
        </mxCell>
        <mxCell id="7A3FjcBQy7pyen3YVcaV-96" style="shape=tableRow;horizontal=0;startSize=0;swimlaneHead=0;swimlaneBody=0;fillColor=none;collapsible=0;dropTarget=0;points=[[0,0.5],[1,0.5]];portConstraint=eastwest;top=0;left=0;right=0;bottom=0;" parent="7A3FjcBQy7pyen3YVcaV-33" vertex="1">
          <mxGeometry y="120" width="180" height="30" as="geometry" />
        </mxCell>
        <mxCell id="7A3FjcBQy7pyen3YVcaV-97" style="shape=partialRectangle;connectable=0;fillColor=none;top=0;left=0;bottom=0;right=0;editable=1;overflow=hidden;whiteSpace=wrap;html=1;" parent="7A3FjcBQy7pyen3YVcaV-96" vertex="1">
          <mxGeometry width="30" height="30" as="geometry">
            <mxRectangle width="30" height="30" as="alternateBounds" />
          </mxGeometry>
        </mxCell>
        <mxCell id="7A3FjcBQy7pyen3YVcaV-98" value="handle_name" style="shape=partialRectangle;connectable=0;fillColor=none;top=0;left=0;bottom=0;right=0;align=left;spacingLeft=6;overflow=hidden;whiteSpace=wrap;html=1;" parent="7A3FjcBQy7pyen3YVcaV-96" vertex="1">
          <mxGeometry x="30" width="150" height="30" as="geometry">
            <mxRectangle width="150" height="30" as="alternateBounds" />
          </mxGeometry>
        </mxCell>
        <mxCell id="7A3FjcBQy7pyen3YVcaV-51" style="shape=tableRow;horizontal=0;startSize=0;swimlaneHead=0;swimlaneBody=0;fillColor=none;collapsible=0;dropTarget=0;points=[[0,0.5],[1,0.5]];portConstraint=eastwest;top=0;left=0;right=0;bottom=0;" parent="7A3FjcBQy7pyen3YVcaV-33" vertex="1">
          <mxGeometry y="150" width="180" height="30" as="geometry" />
        </mxCell>
        <mxCell id="7A3FjcBQy7pyen3YVcaV-52" style="shape=partialRectangle;connectable=0;fillColor=none;top=0;left=0;bottom=0;right=0;editable=1;overflow=hidden;whiteSpace=wrap;html=1;" parent="7A3FjcBQy7pyen3YVcaV-51" vertex="1">
          <mxGeometry width="30" height="30" as="geometry">
            <mxRectangle width="30" height="30" as="alternateBounds" />
          </mxGeometry>
        </mxCell>
        <mxCell id="7A3FjcBQy7pyen3YVcaV-53" value="password_hash" style="shape=partialRectangle;connectable=0;fillColor=none;top=0;left=0;bottom=0;right=0;align=left;spacingLeft=6;overflow=hidden;whiteSpace=wrap;html=1;" parent="7A3FjcBQy7pyen3YVcaV-51" vertex="1">
          <mxGeometry x="30" width="150" height="30" as="geometry">
            <mxRectangle width="150" height="30" as="alternateBounds" />
          </mxGeometry>
        </mxCell>
        <mxCell id="7A3FjcBQy7pyen3YVcaV-54" style="shape=tableRow;horizontal=0;startSize=0;swimlaneHead=0;swimlaneBody=0;fillColor=none;collapsible=0;dropTarget=0;points=[[0,0.5],[1,0.5]];portConstraint=eastwest;top=0;left=0;right=0;bottom=0;" parent="7A3FjcBQy7pyen3YVcaV-33" vertex="1">
          <mxGeometry y="180" width="180" height="30" as="geometry" />
        </mxCell>
        <mxCell id="7A3FjcBQy7pyen3YVcaV-55" style="shape=partialRectangle;connectable=0;fillColor=none;top=0;left=0;bottom=0;right=0;editable=1;overflow=hidden;whiteSpace=wrap;html=1;" parent="7A3FjcBQy7pyen3YVcaV-54" vertex="1">
          <mxGeometry width="30" height="30" as="geometry">
            <mxRectangle width="30" height="30" as="alternateBounds" />
          </mxGeometry>
        </mxCell>
        <mxCell id="7A3FjcBQy7pyen3YVcaV-56" value="password_salt" style="shape=partialRectangle;connectable=0;fillColor=none;top=0;left=0;bottom=0;right=0;align=left;spacingLeft=6;overflow=hidden;whiteSpace=wrap;html=1;" parent="7A3FjcBQy7pyen3YVcaV-54" vertex="1">
          <mxGeometry x="30" width="150" height="30" as="geometry">
            <mxRectangle width="150" height="30" as="alternateBounds" />
          </mxGeometry>
        </mxCell>
        <mxCell id="7A3FjcBQy7pyen3YVcaV-37" value="" style="shape=tableRow;horizontal=0;startSize=0;swimlaneHead=0;swimlaneBody=0;fillColor=none;collapsible=0;dropTarget=0;points=[[0,0.5],[1,0.5]];portConstraint=eastwest;top=0;left=0;right=0;bottom=0;" parent="7A3FjcBQy7pyen3YVcaV-33" vertex="1">
          <mxGeometry y="210" width="180" height="30" as="geometry" />
        </mxCell>
        <mxCell id="7A3FjcBQy7pyen3YVcaV-38" value="" style="shape=partialRectangle;connectable=0;fillColor=none;top=0;left=0;bottom=0;right=0;editable=1;overflow=hidden;whiteSpace=wrap;html=1;" parent="7A3FjcBQy7pyen3YVcaV-37" vertex="1">
          <mxGeometry width="30" height="30" as="geometry">
            <mxRectangle width="30" height="30" as="alternateBounds" />
          </mxGeometry>
        </mxCell>
        <mxCell id="7A3FjcBQy7pyen3YVcaV-39" value="emails" style="shape=partialRectangle;connectable=0;fillColor=none;top=0;left=0;bottom=0;right=0;align=left;spacingLeft=6;overflow=hidden;whiteSpace=wrap;html=1;" parent="7A3FjcBQy7pyen3YVcaV-37" vertex="1">
          <mxGeometry x="30" width="150" height="30" as="geometry">
            <mxRectangle width="150" height="30" as="alternateBounds" />
          </mxGeometry>
        </mxCell>
        <mxCell id="7A3FjcBQy7pyen3YVcaV-40" value="" style="shape=tableRow;horizontal=0;startSize=0;swimlaneHead=0;swimlaneBody=0;fillColor=none;collapsible=0;dropTarget=0;points=[[0,0.5],[1,0.5]];portConstraint=eastwest;top=0;left=0;right=0;bottom=0;" parent="7A3FjcBQy7pyen3YVcaV-33" vertex="1">
          <mxGeometry y="240" width="180" height="30" as="geometry" />
        </mxCell>
        <mxCell id="7A3FjcBQy7pyen3YVcaV-41" value="" style="shape=partialRectangle;connectable=0;fillColor=none;top=0;left=0;bottom=0;right=0;editable=1;overflow=hidden;whiteSpace=wrap;html=1;" parent="7A3FjcBQy7pyen3YVcaV-40" vertex="1">
          <mxGeometry width="30" height="30" as="geometry">
            <mxRectangle width="30" height="30" as="alternateBounds" />
          </mxGeometry>
        </mxCell>
        <mxCell id="7A3FjcBQy7pyen3YVcaV-42" value="phone_numbers" style="shape=partialRectangle;connectable=0;fillColor=none;top=0;left=0;bottom=0;right=0;align=left;spacingLeft=6;overflow=hidden;whiteSpace=wrap;html=1;" parent="7A3FjcBQy7pyen3YVcaV-40" vertex="1">
          <mxGeometry x="30" width="150" height="30" as="geometry">
            <mxRectangle width="150" height="30" as="alternateBounds" />
          </mxGeometry>
        </mxCell>
        <mxCell id="7A3FjcBQy7pyen3YVcaV-57" style="shape=tableRow;horizontal=0;startSize=0;swimlaneHead=0;swimlaneBody=0;fillColor=none;collapsible=0;dropTarget=0;points=[[0,0.5],[1,0.5]];portConstraint=eastwest;top=0;left=0;right=0;bottom=0;" parent="7A3FjcBQy7pyen3YVcaV-33" vertex="1">
          <mxGeometry y="270" width="180" height="30" as="geometry" />
        </mxCell>
        <mxCell id="7A3FjcBQy7pyen3YVcaV-58" style="shape=partialRectangle;connectable=0;fillColor=none;top=0;left=0;bottom=0;right=0;editable=1;overflow=hidden;whiteSpace=wrap;html=1;" parent="7A3FjcBQy7pyen3YVcaV-57" vertex="1">
          <mxGeometry width="30" height="30" as="geometry">
            <mxRectangle width="30" height="30" as="alternateBounds" />
          </mxGeometry>
        </mxCell>
        <mxCell id="7A3FjcBQy7pyen3YVcaV-59" value="full_name" style="shape=partialRectangle;connectable=0;fillColor=none;top=0;left=0;bottom=0;right=0;align=left;spacingLeft=6;overflow=hidden;whiteSpace=wrap;html=1;" parent="7A3FjcBQy7pyen3YVcaV-57" vertex="1">
          <mxGeometry x="30" width="150" height="30" as="geometry">
            <mxRectangle width="150" height="30" as="alternateBounds" />
          </mxGeometry>
        </mxCell>
        <mxCell id="7A3FjcBQy7pyen3YVcaV-43" value="" style="shape=tableRow;horizontal=0;startSize=0;swimlaneHead=0;swimlaneBody=0;fillColor=none;collapsible=0;dropTarget=0;points=[[0,0.5],[1,0.5]];portConstraint=eastwest;top=0;left=0;right=0;bottom=0;" parent="7A3FjcBQy7pyen3YVcaV-33" vertex="1">
          <mxGeometry y="300" width="180" height="30" as="geometry" />
        </mxCell>
        <mxCell id="7A3FjcBQy7pyen3YVcaV-44" value="" style="shape=partialRectangle;connectable=0;fillColor=none;top=0;left=0;bottom=0;right=0;editable=1;overflow=hidden;whiteSpace=wrap;html=1;" parent="7A3FjcBQy7pyen3YVcaV-43" vertex="1">
          <mxGeometry width="30" height="30" as="geometry">
            <mxRectangle width="30" height="30" as="alternateBounds" />
          </mxGeometry>
        </mxCell>
        <mxCell id="7A3FjcBQy7pyen3YVcaV-45" value="avatar_image_url" style="shape=partialRectangle;connectable=0;fillColor=none;top=0;left=0;bottom=0;right=0;align=left;spacingLeft=6;overflow=hidden;whiteSpace=wrap;html=1;" parent="7A3FjcBQy7pyen3YVcaV-43" vertex="1">
          <mxGeometry x="30" width="150" height="30" as="geometry">
            <mxRectangle width="150" height="30" as="alternateBounds" />
          </mxGeometry>
        </mxCell>
        <mxCell id="7A3FjcBQy7pyen3YVcaV-60" style="shape=tableRow;horizontal=0;startSize=0;swimlaneHead=0;swimlaneBody=0;fillColor=none;collapsible=0;dropTarget=0;points=[[0,0.5],[1,0.5]];portConstraint=eastwest;top=0;left=0;right=0;bottom=0;" parent="7A3FjcBQy7pyen3YVcaV-33" vertex="1">
          <mxGeometry y="330" width="180" height="30" as="geometry" />
        </mxCell>
        <mxCell id="7A3FjcBQy7pyen3YVcaV-61" style="shape=partialRectangle;connectable=0;fillColor=none;top=0;left=0;bottom=0;right=0;editable=1;overflow=hidden;whiteSpace=wrap;html=1;" parent="7A3FjcBQy7pyen3YVcaV-60" vertex="1">
          <mxGeometry width="30" height="30" as="geometry">
            <mxRectangle width="30" height="30" as="alternateBounds" />
          </mxGeometry>
        </mxCell>
        <mxCell id="7A3FjcBQy7pyen3YVcaV-62" value="bio" style="shape=partialRectangle;connectable=0;fillColor=none;top=0;left=0;bottom=0;right=0;align=left;spacingLeft=6;overflow=hidden;whiteSpace=wrap;html=1;" parent="7A3FjcBQy7pyen3YVcaV-60" vertex="1">
          <mxGeometry x="30" width="150" height="30" as="geometry">
            <mxRectangle width="150" height="30" as="alternateBounds" />
          </mxGeometry>
        </mxCell>
        <mxCell id="7A3FjcBQy7pyen3YVcaV-63" style="shape=tableRow;horizontal=0;startSize=0;swimlaneHead=0;swimlaneBody=0;fillColor=none;collapsible=0;dropTarget=0;points=[[0,0.5],[1,0.5]];portConstraint=eastwest;top=0;left=0;right=0;bottom=0;" parent="7A3FjcBQy7pyen3YVcaV-33" vertex="1">
          <mxGeometry y="360" width="180" height="30" as="geometry" />
        </mxCell>
        <mxCell id="7A3FjcBQy7pyen3YVcaV-64" style="shape=partialRectangle;connectable=0;fillColor=none;top=0;left=0;bottom=0;right=0;editable=1;overflow=hidden;whiteSpace=wrap;html=1;" parent="7A3FjcBQy7pyen3YVcaV-63" vertex="1">
          <mxGeometry width="30" height="30" as="geometry">
            <mxRectangle width="30" height="30" as="alternateBounds" />
          </mxGeometry>
        </mxCell>
        <mxCell id="7A3FjcBQy7pyen3YVcaV-65" value="visibility" style="shape=partialRectangle;connectable=0;fillColor=none;top=0;left=0;bottom=0;right=0;align=left;spacingLeft=6;overflow=hidden;whiteSpace=wrap;html=1;" parent="7A3FjcBQy7pyen3YVcaV-63" vertex="1">
          <mxGeometry x="30" width="150" height="30" as="geometry">
            <mxRectangle width="150" height="30" as="alternateBounds" />
          </mxGeometry>
        </mxCell>
        <mxCell id="7A3FjcBQy7pyen3YVcaV-66" style="shape=tableRow;horizontal=0;startSize=0;swimlaneHead=0;swimlaneBody=0;fillColor=none;collapsible=0;dropTarget=0;points=[[0,0.5],[1,0.5]];portConstraint=eastwest;top=0;left=0;right=0;bottom=0;" parent="7A3FjcBQy7pyen3YVcaV-33" vertex="1">
          <mxGeometry y="390" width="180" height="30" as="geometry" />
        </mxCell>
        <mxCell id="7A3FjcBQy7pyen3YVcaV-67" style="shape=partialRectangle;connectable=0;fillColor=none;top=0;left=0;bottom=0;right=0;editable=1;overflow=hidden;whiteSpace=wrap;html=1;" parent="7A3FjcBQy7pyen3YVcaV-66" vertex="1">
          <mxGeometry width="30" height="30" as="geometry">
            <mxRectangle width="30" height="30" as="alternateBounds" />
          </mxGeometry>
        </mxCell>
        <mxCell id="7A3FjcBQy7pyen3YVcaV-68" value="notifications" style="shape=partialRectangle;connectable=0;fillColor=none;top=0;left=0;bottom=0;right=0;align=left;spacingLeft=6;overflow=hidden;whiteSpace=wrap;html=1;" parent="7A3FjcBQy7pyen3YVcaV-66" vertex="1">
          <mxGeometry x="30" width="150" height="30" as="geometry">
            <mxRectangle width="150" height="30" as="alternateBounds" />
          </mxGeometry>
        </mxCell>
        <mxCell id="7A3FjcBQy7pyen3YVcaV-75" style="shape=tableRow;horizontal=0;startSize=0;swimlaneHead=0;swimlaneBody=0;fillColor=none;collapsible=0;dropTarget=0;points=[[0,0.5],[1,0.5]];portConstraint=eastwest;top=0;left=0;right=0;bottom=0;" parent="7A3FjcBQy7pyen3YVcaV-33" vertex="1">
          <mxGeometry y="420" width="180" height="30" as="geometry" />
        </mxCell>
        <mxCell id="7A3FjcBQy7pyen3YVcaV-76" style="shape=partialRectangle;connectable=0;fillColor=none;top=0;left=0;bottom=0;right=0;editable=1;overflow=hidden;whiteSpace=wrap;html=1;" parent="7A3FjcBQy7pyen3YVcaV-75" vertex="1">
          <mxGeometry width="30" height="30" as="geometry">
            <mxRectangle width="30" height="30" as="alternateBounds" />
          </mxGeometry>
        </mxCell>
        <mxCell id="7A3FjcBQy7pyen3YVcaV-77" value="countries" style="shape=partialRectangle;connectable=0;fillColor=none;top=0;left=0;bottom=0;right=0;align=left;spacingLeft=6;overflow=hidden;whiteSpace=wrap;html=1;" parent="7A3FjcBQy7pyen3YVcaV-75" vertex="1">
          <mxGeometry x="30" width="150" height="30" as="geometry">
            <mxRectangle width="150" height="30" as="alternateBounds" />
          </mxGeometry>
        </mxCell>
        <mxCell id="7A3FjcBQy7pyen3YVcaV-78" style="shape=tableRow;horizontal=0;startSize=0;swimlaneHead=0;swimlaneBody=0;fillColor=none;collapsible=0;dropTarget=0;points=[[0,0.5],[1,0.5]];portConstraint=eastwest;top=0;left=0;right=0;bottom=0;" parent="7A3FjcBQy7pyen3YVcaV-33" vertex="1">
          <mxGeometry y="450" width="180" height="30" as="geometry" />
        </mxCell>
        <mxCell id="7A3FjcBQy7pyen3YVcaV-79" style="shape=partialRectangle;connectable=0;fillColor=none;top=0;left=0;bottom=0;right=0;editable=1;overflow=hidden;whiteSpace=wrap;html=1;" parent="7A3FjcBQy7pyen3YVcaV-78" vertex="1">
          <mxGeometry width="30" height="30" as="geometry">
            <mxRectangle width="30" height="30" as="alternateBounds" />
          </mxGeometry>
        </mxCell>
        <mxCell id="7A3FjcBQy7pyen3YVcaV-80" value="languages" style="shape=partialRectangle;connectable=0;fillColor=none;top=0;left=0;bottom=0;right=0;align=left;spacingLeft=6;overflow=hidden;whiteSpace=wrap;html=1;" parent="7A3FjcBQy7pyen3YVcaV-78" vertex="1">
          <mxGeometry x="30" width="150" height="30" as="geometry">
            <mxRectangle width="150" height="30" as="alternateBounds" />
          </mxGeometry>
        </mxCell>
        <mxCell id="7A3FjcBQy7pyen3YVcaV-100" value="PDS" style="shape=table;startSize=30;container=1;collapsible=1;childLayout=tableLayout;fixedRows=1;rowLines=0;fontStyle=1;align=center;resizeLast=1;html=1;" parent="1" vertex="1">
          <mxGeometry x="425" y="40" width="180" height="180" as="geometry" />
        </mxCell>
        <mxCell id="7A3FjcBQy7pyen3YVcaV-101" value="" style="shape=tableRow;horizontal=0;startSize=0;swimlaneHead=0;swimlaneBody=0;fillColor=none;collapsible=0;dropTarget=0;points=[[0,0.5],[1,0.5]];portConstraint=eastwest;top=0;left=0;right=0;bottom=1;" parent="7A3FjcBQy7pyen3YVcaV-100" vertex="1">
          <mxGeometry y="30" width="180" height="30" as="geometry" />
        </mxCell>
        <mxCell id="7A3FjcBQy7pyen3YVcaV-102" value="PK" style="shape=partialRectangle;connectable=0;fillColor=none;top=0;left=0;bottom=0;right=0;fontStyle=1;overflow=hidden;whiteSpace=wrap;html=1;" parent="7A3FjcBQy7pyen3YVcaV-101" vertex="1">
          <mxGeometry width="30" height="30" as="geometry">
            <mxRectangle width="30" height="30" as="alternateBounds" />
          </mxGeometry>
        </mxCell>
        <mxCell id="7A3FjcBQy7pyen3YVcaV-103" value="id" style="shape=partialRectangle;connectable=0;fillColor=none;top=0;left=0;bottom=0;right=0;align=left;spacingLeft=6;fontStyle=5;overflow=hidden;whiteSpace=wrap;html=1;" parent="7A3FjcBQy7pyen3YVcaV-101" vertex="1">
          <mxGeometry x="30" width="150" height="30" as="geometry">
            <mxRectangle width="150" height="30" as="alternateBounds" />
          </mxGeometry>
        </mxCell>
        <mxCell id="7A3FjcBQy7pyen3YVcaV-104" value="" style="shape=tableRow;horizontal=0;startSize=0;swimlaneHead=0;swimlaneBody=0;fillColor=none;collapsible=0;dropTarget=0;points=[[0,0.5],[1,0.5]];portConstraint=eastwest;top=0;left=0;right=0;bottom=0;" parent="7A3FjcBQy7pyen3YVcaV-100" vertex="1">
          <mxGeometry y="60" width="180" height="30" as="geometry" />
        </mxCell>
        <mxCell id="7A3FjcBQy7pyen3YVcaV-105" value="" style="shape=partialRectangle;connectable=0;fillColor=none;top=0;left=0;bottom=0;right=0;editable=1;overflow=hidden;whiteSpace=wrap;html=1;" parent="7A3FjcBQy7pyen3YVcaV-104" vertex="1">
          <mxGeometry width="30" height="30" as="geometry">
            <mxRectangle width="30" height="30" as="alternateBounds" />
          </mxGeometry>
        </mxCell>
        <mxCell id="7A3FjcBQy7pyen3YVcaV-106" value="location" style="shape=partialRectangle;connectable=0;fillColor=none;top=0;left=0;bottom=0;right=0;align=left;spacingLeft=6;overflow=hidden;whiteSpace=wrap;html=1;" parent="7A3FjcBQy7pyen3YVcaV-104" vertex="1">
          <mxGeometry x="30" width="150" height="30" as="geometry">
            <mxRectangle width="150" height="30" as="alternateBounds" />
          </mxGeometry>
        </mxCell>
        <mxCell id="7A3FjcBQy7pyen3YVcaV-107" value="" style="shape=tableRow;horizontal=0;startSize=0;swimlaneHead=0;swimlaneBody=0;fillColor=none;collapsible=0;dropTarget=0;points=[[0,0.5],[1,0.5]];portConstraint=eastwest;top=0;left=0;right=0;bottom=0;" parent="7A3FjcBQy7pyen3YVcaV-100" vertex="1">
          <mxGeometry y="90" width="180" height="30" as="geometry" />
        </mxCell>
        <mxCell id="7A3FjcBQy7pyen3YVcaV-108" value="" style="shape=partialRectangle;connectable=0;fillColor=none;top=0;left=0;bottom=0;right=0;editable=1;overflow=hidden;whiteSpace=wrap;html=1;" parent="7A3FjcBQy7pyen3YVcaV-107" vertex="1">
          <mxGeometry width="30" height="30" as="geometry">
            <mxRectangle width="30" height="30" as="alternateBounds" />
          </mxGeometry>
        </mxCell>
        <mxCell id="7A3FjcBQy7pyen3YVcaV-109" value="created_at" style="shape=partialRectangle;connectable=0;fillColor=none;top=0;left=0;bottom=0;right=0;align=left;spacingLeft=6;overflow=hidden;whiteSpace=wrap;html=1;" parent="7A3FjcBQy7pyen3YVcaV-107" vertex="1">
          <mxGeometry x="30" width="150" height="30" as="geometry">
            <mxRectangle width="150" height="30" as="alternateBounds" />
          </mxGeometry>
        </mxCell>
        <mxCell id="7A3FjcBQy7pyen3YVcaV-110" value="" style="shape=tableRow;horizontal=0;startSize=0;swimlaneHead=0;swimlaneBody=0;fillColor=none;collapsible=0;dropTarget=0;points=[[0,0.5],[1,0.5]];portConstraint=eastwest;top=0;left=0;right=0;bottom=0;" parent="7A3FjcBQy7pyen3YVcaV-100" vertex="1">
          <mxGeometry y="120" width="180" height="30" as="geometry" />
        </mxCell>
        <mxCell id="7A3FjcBQy7pyen3YVcaV-111" value="" style="shape=partialRectangle;connectable=0;fillColor=none;top=0;left=0;bottom=0;right=0;editable=1;overflow=hidden;whiteSpace=wrap;html=1;" parent="7A3FjcBQy7pyen3YVcaV-110" vertex="1">
          <mxGeometry width="30" height="30" as="geometry">
            <mxRectangle width="30" height="30" as="alternateBounds" />
          </mxGeometry>
        </mxCell>
        <mxCell id="7A3FjcBQy7pyen3YVcaV-112" value="capacity" style="shape=partialRectangle;connectable=0;fillColor=none;top=0;left=0;bottom=0;right=0;align=left;spacingLeft=6;overflow=hidden;whiteSpace=wrap;html=1;" parent="7A3FjcBQy7pyen3YVcaV-110" vertex="1">
          <mxGeometry x="30" width="150" height="30" as="geometry">
            <mxRectangle width="150" height="30" as="alternateBounds" />
          </mxGeometry>
        </mxCell>
        <mxCell id="7A3FjcBQy7pyen3YVcaV-157" style="shape=tableRow;horizontal=0;startSize=0;swimlaneHead=0;swimlaneBody=0;fillColor=none;collapsible=0;dropTarget=0;points=[[0,0.5],[1,0.5]];portConstraint=eastwest;top=0;left=0;right=0;bottom=0;" parent="7A3FjcBQy7pyen3YVcaV-100" vertex="1">
          <mxGeometry y="150" width="180" height="30" as="geometry" />
        </mxCell>
        <mxCell id="7A3FjcBQy7pyen3YVcaV-158" style="shape=partialRectangle;connectable=0;fillColor=none;top=0;left=0;bottom=0;right=0;editable=1;overflow=hidden;whiteSpace=wrap;html=1;" parent="7A3FjcBQy7pyen3YVcaV-157" vertex="1">
          <mxGeometry width="30" height="30" as="geometry">
            <mxRectangle width="30" height="30" as="alternateBounds" />
          </mxGeometry>
        </mxCell>
        <mxCell id="7A3FjcBQy7pyen3YVcaV-159" style="shape=partialRectangle;connectable=0;fillColor=none;top=0;left=0;bottom=0;right=0;align=left;spacingLeft=6;overflow=hidden;whiteSpace=wrap;html=1;" parent="7A3FjcBQy7pyen3YVcaV-157" vertex="1">
          <mxGeometry x="30" width="150" height="30" as="geometry">
            <mxRectangle width="150" height="30" as="alternateBounds" />
          </mxGeometry>
        </mxCell>
        <mxCell id="7A3FjcBQy7pyen3YVcaV-113" value="AccountServiceData" style="shape=table;startSize=30;container=1;collapsible=1;childLayout=tableLayout;fixedRows=1;rowLines=0;fontStyle=1;align=center;resizeLast=1;html=1;" parent="1" vertex="1">
          <mxGeometry x="35" y="160" width="180" height="150" as="geometry" />
        </mxCell>
        <mxCell id="7A3FjcBQy7pyen3YVcaV-114" value="" style="shape=tableRow;horizontal=0;startSize=0;swimlaneHead=0;swimlaneBody=0;fillColor=none;collapsible=0;dropTarget=0;points=[[0,0.5],[1,0.5]];portConstraint=eastwest;top=0;left=0;right=0;bottom=1;" parent="7A3FjcBQy7pyen3YVcaV-113" vertex="1">
          <mxGeometry y="30" width="180" height="30" as="geometry" />
        </mxCell>
        <mxCell id="7A3FjcBQy7pyen3YVcaV-115" value="PK" style="shape=partialRectangle;connectable=0;fillColor=none;top=0;left=0;bottom=0;right=0;fontStyle=1;overflow=hidden;whiteSpace=wrap;html=1;" parent="7A3FjcBQy7pyen3YVcaV-114" vertex="1">
          <mxGeometry width="30" height="30" as="geometry">
            <mxRectangle width="30" height="30" as="alternateBounds" />
          </mxGeometry>
        </mxCell>
        <mxCell id="7A3FjcBQy7pyen3YVcaV-116" value="account_id" style="shape=partialRectangle;connectable=0;fillColor=none;top=0;left=0;bottom=0;right=0;align=left;spacingLeft=6;fontStyle=5;overflow=hidden;whiteSpace=wrap;html=1;" parent="7A3FjcBQy7pyen3YVcaV-114" vertex="1">
          <mxGeometry x="30" width="150" height="30" as="geometry">
            <mxRectangle width="150" height="30" as="alternateBounds" />
          </mxGeometry>
        </mxCell>
        <mxCell id="7A3FjcBQy7pyen3YVcaV-117" value="" style="shape=tableRow;horizontal=0;startSize=0;swimlaneHead=0;swimlaneBody=0;fillColor=none;collapsible=0;dropTarget=0;points=[[0,0.5],[1,0.5]];portConstraint=eastwest;top=0;left=0;right=0;bottom=0;" parent="7A3FjcBQy7pyen3YVcaV-113" vertex="1">
          <mxGeometry y="60" width="180" height="30" as="geometry" />
        </mxCell>
        <mxCell id="7A3FjcBQy7pyen3YVcaV-118" value="" style="shape=partialRectangle;connectable=0;fillColor=none;top=0;left=0;bottom=0;right=0;editable=1;overflow=hidden;whiteSpace=wrap;html=1;" parent="7A3FjcBQy7pyen3YVcaV-117" vertex="1">
          <mxGeometry width="30" height="30" as="geometry">
            <mxRectangle width="30" height="30" as="alternateBounds" />
          </mxGeometry>
        </mxCell>
        <mxCell id="7A3FjcBQy7pyen3YVcaV-119" value="pds_id" style="shape=partialRectangle;connectable=0;fillColor=none;top=0;left=0;bottom=0;right=0;align=left;spacingLeft=6;overflow=hidden;whiteSpace=wrap;html=1;" parent="7A3FjcBQy7pyen3YVcaV-117" vertex="1">
          <mxGeometry x="30" width="150" height="30" as="geometry">
            <mxRectangle width="150" height="30" as="alternateBounds" />
          </mxGeometry>
        </mxCell>
        <mxCell id="7A3FjcBQy7pyen3YVcaV-120" value="" style="shape=tableRow;horizontal=0;startSize=0;swimlaneHead=0;swimlaneBody=0;fillColor=none;collapsible=0;dropTarget=0;points=[[0,0.5],[1,0.5]];portConstraint=eastwest;top=0;left=0;right=0;bottom=0;" parent="7A3FjcBQy7pyen3YVcaV-113" vertex="1">
          <mxGeometry y="90" width="180" height="30" as="geometry" />
        </mxCell>
        <mxCell id="7A3FjcBQy7pyen3YVcaV-121" value="" style="shape=partialRectangle;connectable=0;fillColor=none;top=0;left=0;bottom=0;right=0;editable=1;overflow=hidden;whiteSpace=wrap;html=1;" parent="7A3FjcBQy7pyen3YVcaV-120" vertex="1">
          <mxGeometry width="30" height="30" as="geometry">
            <mxRectangle width="30" height="30" as="alternateBounds" />
          </mxGeometry>
        </mxCell>
        <mxCell id="7A3FjcBQy7pyen3YVcaV-122" value="orbis_socialis_id" style="shape=partialRectangle;connectable=0;fillColor=none;top=0;left=0;bottom=0;right=0;align=left;spacingLeft=6;overflow=hidden;whiteSpace=wrap;html=1;" parent="7A3FjcBQy7pyen3YVcaV-120" vertex="1">
          <mxGeometry x="30" width="150" height="30" as="geometry">
            <mxRectangle width="150" height="30" as="alternateBounds" />
          </mxGeometry>
        </mxCell>
        <mxCell id="7A3FjcBQy7pyen3YVcaV-123" value="" style="shape=tableRow;horizontal=0;startSize=0;swimlaneHead=0;swimlaneBody=0;fillColor=none;collapsible=0;dropTarget=0;points=[[0,0.5],[1,0.5]];portConstraint=eastwest;top=0;left=0;right=0;bottom=0;" parent="7A3FjcBQy7pyen3YVcaV-113" vertex="1">
          <mxGeometry y="120" width="180" height="30" as="geometry" />
        </mxCell>
        <mxCell id="7A3FjcBQy7pyen3YVcaV-124" value="" style="shape=partialRectangle;connectable=0;fillColor=none;top=0;left=0;bottom=0;right=0;editable=1;overflow=hidden;whiteSpace=wrap;html=1;" parent="7A3FjcBQy7pyen3YVcaV-123" vertex="1">
          <mxGeometry width="30" height="30" as="geometry">
            <mxRectangle width="30" height="30" as="alternateBounds" />
          </mxGeometry>
        </mxCell>
        <mxCell id="7A3FjcBQy7pyen3YVcaV-125" value="is_banned" style="shape=partialRectangle;connectable=0;fillColor=none;top=0;left=0;bottom=0;right=0;align=left;spacingLeft=6;overflow=hidden;whiteSpace=wrap;html=1;" parent="7A3FjcBQy7pyen3YVcaV-123" vertex="1">
          <mxGeometry x="30" width="150" height="30" as="geometry">
            <mxRectangle width="150" height="30" as="alternateBounds" />
          </mxGeometry>
        </mxCell>
        <mxCell id="7A3FjcBQy7pyen3YVcaV-145" style="edgeStyle=orthogonalEdgeStyle;rounded=0;orthogonalLoop=1;jettySize=auto;html=1;exitX=0;exitY=0;exitDx=0;exitDy=0;entryX=0;entryY=0.25;entryDx=0;entryDy=0;fillColor=#0050ef;strokeColor=#001DBC;" parent="1" source="7A3FjcBQy7pyen3YVcaV-144" target="Ma2R47XXeUhrd2ViUQ3c-39" edge="1">
          <mxGeometry relative="1" as="geometry">
            <mxPoint x="150" y="1050" as="targetPoint" />
          </mxGeometry>
        </mxCell>
        <mxCell id="7A3FjcBQy7pyen3YVcaV-146" style="edgeStyle=orthogonalEdgeStyle;rounded=0;orthogonalLoop=1;jettySize=auto;html=1;exitX=0;exitY=0.5;exitDx=0;exitDy=0;fillColor=#0050ef;strokeColor=#001DBC;" parent="1" source="7A3FjcBQy7pyen3YVcaV-144" target="Ma2R47XXeUhrd2ViUQ3c-34" edge="1">
          <mxGeometry relative="1" as="geometry">
            <mxPoint x="-50" y="720" as="targetPoint" />
            <mxPoint x="60" y="1260" as="sourcePoint" />
            <Array as="points">
              <mxPoint x="-640" y="1290" />
              <mxPoint x="-640" y="885" />
            </Array>
          </mxGeometry>
        </mxCell>
        <mxCell id="7A3FjcBQy7pyen3YVcaV-147" style="edgeStyle=orthogonalEdgeStyle;rounded=0;orthogonalLoop=1;jettySize=auto;html=1;exitX=1;exitY=0;exitDx=0;exitDy=0;entryX=0.25;entryY=1;entryDx=0;entryDy=0;fillColor=#0050ef;strokeColor=#001DBC;" parent="1" source="7A3FjcBQy7pyen3YVcaV-144" target="Ma2R47XXeUhrd2ViUQ3c-43" edge="1">
          <mxGeometry relative="1" as="geometry">
            <mxPoint x="420" y="1050" as="targetPoint" />
            <Array as="points">
              <mxPoint x="340" y="1262" />
              <mxPoint x="340" y="1210" />
              <mxPoint x="-144" y="1210" />
            </Array>
          </mxGeometry>
        </mxCell>
        <mxCell id="7A3FjcBQy7pyen3YVcaV-148" style="edgeStyle=orthogonalEdgeStyle;rounded=0;orthogonalLoop=1;jettySize=auto;html=1;exitX=1;exitY=0.5;exitDx=0;exitDy=0;entryX=0.25;entryY=1;entryDx=0;entryDy=0;fillColor=#0050ef;strokeColor=#001DBC;" parent="1" source="7A3FjcBQy7pyen3YVcaV-144" target="Ma2R47XXeUhrd2ViUQ3c-31" edge="1">
          <mxGeometry relative="1" as="geometry">
            <Array as="points">
              <mxPoint x="350" y="1290" />
              <mxPoint x="350" y="1180" />
              <mxPoint x="-10" y="1180" />
              <mxPoint x="-10" y="920" />
              <mxPoint x="-240" y="920" />
            </Array>
            <mxPoint x="455" y="753.75" as="targetPoint" />
          </mxGeometry>
        </mxCell>
        <mxCell id="Ma2R47XXeUhrd2ViUQ3c-111" style="edgeStyle=orthogonalEdgeStyle;rounded=0;orthogonalLoop=1;jettySize=auto;html=1;exitX=0;exitY=1;exitDx=0;exitDy=0;entryX=1;entryY=0.5;entryDx=0;entryDy=0;fillColor=#0050ef;strokeColor=#001DBC;" edge="1" parent="1" source="7A3FjcBQy7pyen3YVcaV-144" target="Ma2R47XXeUhrd2ViUQ3c-90">
          <mxGeometry relative="1" as="geometry">
            <Array as="points">
              <mxPoint x="-660" y="1318" />
              <mxPoint x="-660" y="869" />
            </Array>
          </mxGeometry>
        </mxCell>
        <mxCell id="Ma2R47XXeUhrd2ViUQ3c-112" style="edgeStyle=orthogonalEdgeStyle;rounded=0;orthogonalLoop=1;jettySize=auto;html=1;exitX=0.5;exitY=1;exitDx=0;exitDy=0;entryX=1;entryY=1;entryDx=0;entryDy=0;fillColor=#0050ef;strokeColor=#001DBC;" edge="1" parent="1" source="7A3FjcBQy7pyen3YVcaV-144" target="Ma2R47XXeUhrd2ViUQ3c-50">
          <mxGeometry relative="1" as="geometry">
            <Array as="points">
              <mxPoint x="290" y="1350" />
              <mxPoint x="-860" y="1350" />
              <mxPoint x="-860" y="621" />
            </Array>
          </mxGeometry>
        </mxCell>
        <mxCell id="Ma2R47XXeUhrd2ViUQ3c-113" style="edgeStyle=orthogonalEdgeStyle;rounded=0;orthogonalLoop=1;jettySize=auto;html=1;exitX=1;exitY=1;exitDx=0;exitDy=0;entryX=1;entryY=0.5;entryDx=0;entryDy=0;fillColor=#0050ef;strokeColor=#001DBC;" edge="1" parent="1" source="7A3FjcBQy7pyen3YVcaV-144" target="Ma2R47XXeUhrd2ViUQ3c-80">
          <mxGeometry relative="1" as="geometry">
            <mxPoint x="-1250" y="604" as="targetPoint" />
            <Array as="points">
              <mxPoint x="318" y="1380" />
              <mxPoint x="-1200" y="1380" />
              <mxPoint x="-1200" y="610" />
            </Array>
          </mxGeometry>
        </mxCell>
        <mxCell id="Ma2R47XXeUhrd2ViUQ3c-114" style="edgeStyle=orthogonalEdgeStyle;rounded=0;orthogonalLoop=1;jettySize=auto;html=1;exitX=1;exitY=1;exitDx=0;exitDy=0;entryX=1;entryY=0.5;entryDx=0;entryDy=0;fillColor=#0050ef;strokeColor=#001DBC;" edge="1" parent="1" source="7A3FjcBQy7pyen3YVcaV-144" target="Ma2R47XXeUhrd2ViUQ3c-85">
          <mxGeometry relative="1" as="geometry">
            <Array as="points">
              <mxPoint x="340" y="1318" />
              <mxPoint x="340" y="1400" />
              <mxPoint x="-1210" y="1400" />
              <mxPoint x="-1210" y="869" />
            </Array>
          </mxGeometry>
        </mxCell>
        <mxCell id="7A3FjcBQy7pyen3YVcaV-144" value="Zookeeper1" style="ellipse;whiteSpace=wrap;html=1;aspect=fixed;" parent="1" vertex="1">
          <mxGeometry x="250" y="1250" width="80" height="80" as="geometry" />
        </mxCell>
        <mxCell id="Ma2R47XXeUhrd2ViUQ3c-109" style="edgeStyle=orthogonalEdgeStyle;rounded=0;orthogonalLoop=1;jettySize=auto;html=1;exitX=0;exitY=1;exitDx=0;exitDy=0;exitPerimeter=0;entryX=0.5;entryY=0;entryDx=0;entryDy=0;fillColor=#008a00;strokeColor=#005700;" edge="1" parent="1" source="7A3FjcBQy7pyen3YVcaV-169" target="Ma2R47XXeUhrd2ViUQ3c-36">
          <mxGeometry relative="1" as="geometry" />
        </mxCell>
        <mxCell id="Ma2R47XXeUhrd2ViUQ3c-110" style="edgeStyle=orthogonalEdgeStyle;rounded=0;orthogonalLoop=1;jettySize=auto;html=1;exitX=0.5;exitY=0;exitDx=0;exitDy=0;exitPerimeter=0;entryX=0.625;entryY=1;entryDx=0;entryDy=0;fillColor=#008a00;strokeColor=#005700;" edge="1" parent="1" source="7A3FjcBQy7pyen3YVcaV-169" target="Ma2R47XXeUhrd2ViUQ3c-108">
          <mxGeometry relative="1" as="geometry" />
        </mxCell>
        <mxCell id="Ma2R47XXeUhrd2ViUQ3c-118" style="edgeStyle=orthogonalEdgeStyle;rounded=0;orthogonalLoop=1;jettySize=auto;html=1;exitX=0;exitY=0.3333333333333333;exitDx=0;exitDy=0;exitPerimeter=0;entryX=1;entryY=0.5;entryDx=0;entryDy=0;fillColor=#008a00;strokeColor=#005700;" edge="1" parent="1" source="7A3FjcBQy7pyen3YVcaV-169" target="Ma2R47XXeUhrd2ViUQ3c-117">
          <mxGeometry relative="1" as="geometry" />
        </mxCell>
        <mxCell id="7A3FjcBQy7pyen3YVcaV-169" value="Client" style="shape=umlActor;verticalLabelPosition=bottom;verticalAlign=top;html=1;outlineConnect=0;" parent="1" vertex="1">
          <mxGeometry x="-440" y="430" width="30" height="60" as="geometry" />
        </mxCell>
        <mxCell id="lDYw4EqjbrMPb8DaC6pK-1" style="edgeStyle=orthogonalEdgeStyle;rounded=0;orthogonalLoop=1;jettySize=auto;html=1;exitX=0;exitY=0.5;exitDx=0;exitDy=0;entryX=1;entryY=0.5;entryDx=0;entryDy=0;" parent="1" source="7A3FjcBQy7pyen3YVcaV-114" target="7A3FjcBQy7pyen3YVcaV-34" edge="1">
          <mxGeometry relative="1" as="geometry" />
        </mxCell>
        <mxCell id="lDYw4EqjbrMPb8DaC6pK-2" style="edgeStyle=orthogonalEdgeStyle;rounded=0;orthogonalLoop=1;jettySize=auto;html=1;exitX=0;exitY=0.5;exitDx=0;exitDy=0;entryX=1;entryY=0.5;entryDx=0;entryDy=0;" parent="1" source="7A3FjcBQy7pyen3YVcaV-101" target="7A3FjcBQy7pyen3YVcaV-117" edge="1">
          <mxGeometry relative="1" as="geometry" />
        </mxCell>
        <mxCell id="lDYw4EqjbrMPb8DaC6pK-3" style="edgeStyle=orthogonalEdgeStyle;rounded=0;orthogonalLoop=1;jettySize=auto;html=1;exitX=0;exitY=0.5;exitDx=0;exitDy=0;entryX=1;entryY=0.5;entryDx=0;entryDy=0;" parent="1" source="7A3FjcBQy7pyen3YVcaV-84" target="7A3FjcBQy7pyen3YVcaV-120" edge="1">
          <mxGeometry relative="1" as="geometry" />
        </mxCell>
        <mxCell id="Ma2R47XXeUhrd2ViUQ3c-14" style="edgeStyle=orthogonalEdgeStyle;rounded=0;orthogonalLoop=1;jettySize=auto;html=1;exitX=0;exitY=0;exitDx=0;exitDy=0;entryX=1;entryY=0.5;entryDx=0;entryDy=0;" edge="1" parent="1" source="Ma2R47XXeUhrd2ViUQ3c-1" target="Ma2R47XXeUhrd2ViUQ3c-3">
          <mxGeometry relative="1" as="geometry" />
        </mxCell>
        <mxCell id="Ma2R47XXeUhrd2ViUQ3c-19" style="edgeStyle=orthogonalEdgeStyle;rounded=0;orthogonalLoop=1;jettySize=auto;html=1;exitX=0;exitY=1;exitDx=0;exitDy=0;" edge="1" parent="1" source="Ma2R47XXeUhrd2ViUQ3c-1" target="Ma2R47XXeUhrd2ViUQ3c-4">
          <mxGeometry relative="1" as="geometry" />
        </mxCell>
        <mxCell id="Ma2R47XXeUhrd2ViUQ3c-1" value="OS" style="ellipse;whiteSpace=wrap;html=1;" vertex="1" parent="1">
          <mxGeometry x="1390" y="90" width="50" height="50" as="geometry" />
        </mxCell>
        <mxCell id="Ma2R47XXeUhrd2ViUQ3c-16" style="edgeStyle=orthogonalEdgeStyle;rounded=0;orthogonalLoop=1;jettySize=auto;html=1;exitX=1;exitY=0.5;exitDx=0;exitDy=0;entryX=0.5;entryY=1;entryDx=0;entryDy=0;" edge="1" parent="1" source="Ma2R47XXeUhrd2ViUQ3c-2" target="Ma2R47XXeUhrd2ViUQ3c-6">
          <mxGeometry relative="1" as="geometry" />
        </mxCell>
        <mxCell id="Ma2R47XXeUhrd2ViUQ3c-2" value="OS" style="ellipse;whiteSpace=wrap;html=1;" vertex="1" parent="1">
          <mxGeometry x="1500" y="210" width="50" height="50" as="geometry" />
        </mxCell>
        <mxCell id="Ma2R47XXeUhrd2ViUQ3c-15" style="edgeStyle=orthogonalEdgeStyle;rounded=0;orthogonalLoop=1;jettySize=auto;html=1;exitX=0.5;exitY=1;exitDx=0;exitDy=0;" edge="1" parent="1" source="Ma2R47XXeUhrd2ViUQ3c-3" target="Ma2R47XXeUhrd2ViUQ3c-2">
          <mxGeometry relative="1" as="geometry">
            <mxPoint x="1237.677669529664" y="159.99766952966394" as="sourcePoint" />
            <mxPoint x="1470" y="267.32" as="targetPoint" />
          </mxGeometry>
        </mxCell>
        <mxCell id="Ma2R47XXeUhrd2ViUQ3c-3" value="OS" style="ellipse;whiteSpace=wrap;html=1;" vertex="1" parent="1">
          <mxGeometry x="1250" y="60" width="50" height="50" as="geometry" />
        </mxCell>
        <mxCell id="Ma2R47XXeUhrd2ViUQ3c-4" value="PDS" style="ellipse;whiteSpace=wrap;html=1;" vertex="1" parent="1">
          <mxGeometry x="1220" y="260" width="50" height="50" as="geometry" />
        </mxCell>
        <mxCell id="Ma2R47XXeUhrd2ViUQ3c-18" style="edgeStyle=orthogonalEdgeStyle;rounded=0;orthogonalLoop=1;jettySize=auto;html=1;exitX=0;exitY=0;exitDx=0;exitDy=0;entryX=0.5;entryY=1;entryDx=0;entryDy=0;" edge="1" parent="1" source="Ma2R47XXeUhrd2ViUQ3c-5" target="Ma2R47XXeUhrd2ViUQ3c-1">
          <mxGeometry relative="1" as="geometry" />
        </mxCell>
        <mxCell id="Ma2R47XXeUhrd2ViUQ3c-5" value="OS" style="ellipse;whiteSpace=wrap;html=1;" vertex="1" parent="1">
          <mxGeometry x="1420" y="350" width="50" height="50" as="geometry" />
        </mxCell>
        <mxCell id="Ma2R47XXeUhrd2ViUQ3c-13" style="edgeStyle=orthogonalEdgeStyle;rounded=0;orthogonalLoop=1;jettySize=auto;html=1;exitX=0;exitY=0.5;exitDx=0;exitDy=0;entryX=1;entryY=0.5;entryDx=0;entryDy=0;" edge="1" parent="1" source="Ma2R47XXeUhrd2ViUQ3c-6" target="Ma2R47XXeUhrd2ViUQ3c-1">
          <mxGeometry relative="1" as="geometry" />
        </mxCell>
        <mxCell id="Ma2R47XXeUhrd2ViUQ3c-17" style="edgeStyle=orthogonalEdgeStyle;rounded=0;orthogonalLoop=1;jettySize=auto;html=1;exitX=0.5;exitY=0;exitDx=0;exitDy=0;entryX=1;entryY=0;entryDx=0;entryDy=0;" edge="1" parent="1" target="Ma2R47XXeUhrd2ViUQ3c-5">
          <mxGeometry relative="1" as="geometry">
            <mxPoint x="1630" y="90" as="sourcePoint" />
            <mxPoint x="1470" y="350" as="targetPoint" />
          </mxGeometry>
        </mxCell>
        <mxCell id="Ma2R47XXeUhrd2ViUQ3c-6" value="PDS" style="ellipse;whiteSpace=wrap;html=1;" vertex="1" parent="1">
          <mxGeometry x="1580" y="90" width="50" height="50" as="geometry" />
        </mxCell>
        <mxCell id="Ma2R47XXeUhrd2ViUQ3c-10" style="edgeStyle=orthogonalEdgeStyle;rounded=0;orthogonalLoop=1;jettySize=auto;html=1;exitX=1;exitY=1;exitDx=0;exitDy=0;exitPerimeter=0;entryX=0;entryY=0.5;entryDx=0;entryDy=0;" edge="1" parent="1" source="Ma2R47XXeUhrd2ViUQ3c-8" target="Ma2R47XXeUhrd2ViUQ3c-4">
          <mxGeometry relative="1" as="geometry" />
        </mxCell>
        <mxCell id="Ma2R47XXeUhrd2ViUQ3c-8" value="P1" style="shape=umlActor;verticalLabelPosition=bottom;verticalAlign=top;html=1;outlineConnect=0;" vertex="1" parent="1">
          <mxGeometry x="1120" y="110" width="30" height="60" as="geometry" />
        </mxCell>
        <mxCell id="Ma2R47XXeUhrd2ViUQ3c-11" style="edgeStyle=orthogonalEdgeStyle;rounded=0;orthogonalLoop=1;jettySize=auto;html=1;exitX=1;exitY=1;exitDx=0;exitDy=0;exitPerimeter=0;entryX=1;entryY=0.5;entryDx=0;entryDy=0;" edge="1" parent="1" source="Ma2R47XXeUhrd2ViUQ3c-9" target="Ma2R47XXeUhrd2ViUQ3c-6">
          <mxGeometry relative="1" as="geometry" />
        </mxCell>
        <mxCell id="Ma2R47XXeUhrd2ViUQ3c-9" value="P2" style="shape=umlActor;verticalLabelPosition=bottom;verticalAlign=top;html=1;outlineConnect=0;" vertex="1" parent="1">
          <mxGeometry x="1580" y="-100" width="30" height="60" as="geometry" />
        </mxCell>
        <mxCell id="Ma2R47XXeUhrd2ViUQ3c-12" value="1-2-3-4-5-6-7-8&lt;div&gt;&lt;br/&gt;&lt;/div&gt;" style="text;html=1;align=center;verticalAlign=middle;resizable=0;points=[];autosize=1;strokeColor=none;fillColor=none;" vertex="1" parent="1">
          <mxGeometry x="1170" y="-67" width="100" height="40" as="geometry" />
        </mxCell>
        <mxCell id="Ma2R47XXeUhrd2ViUQ3c-21" value="" style="endArrow=classic;startArrow=classic;html=1;rounded=0;exitX=0.88;exitY=0.25;exitDx=0;exitDy=0;exitPerimeter=0;entryX=0;entryY=1;entryDx=0;entryDy=0;fillColor=#d80073;strokeColor=#A50040;" edge="1" parent="1" source="Ma2R47XXeUhrd2ViUQ3c-46" target="Ma2R47XXeUhrd2ViUQ3c-31">
          <mxGeometry width="50" height="50" relative="1" as="geometry">
            <mxPoint x="340" y="920" as="sourcePoint" />
            <mxPoint x="400" y="850" as="targetPoint" />
          </mxGeometry>
        </mxCell>
        <mxCell id="Ma2R47XXeUhrd2ViUQ3c-22" value="" style="endArrow=classic;startArrow=classic;html=1;rounded=0;exitX=0.25;exitY=0.25;exitDx=0;exitDy=0;exitPerimeter=0;entryX=1;entryY=1;entryDx=0;entryDy=0;fillColor=#d80073;strokeColor=#A50040;" edge="1" parent="1" source="Ma2R47XXeUhrd2ViUQ3c-46" target="Ma2R47XXeUhrd2ViUQ3c-34">
          <mxGeometry width="50" height="50" relative="1" as="geometry">
            <mxPoint x="346" y="900" as="sourcePoint" />
            <mxPoint x="260" y="810" as="targetPoint" />
          </mxGeometry>
        </mxCell>
        <mxCell id="Ma2R47XXeUhrd2ViUQ3c-23" value="" style="endArrow=classic;startArrow=classic;html=1;rounded=0;entryX=0;entryY=1;entryDx=0;entryDy=0;exitX=0.55;exitY=0.95;exitDx=0;exitDy=0;exitPerimeter=0;fillColor=#d80073;strokeColor=#A50040;" edge="1" parent="1" source="Ma2R47XXeUhrd2ViUQ3c-46" target="Ma2R47XXeUhrd2ViUQ3c-43">
          <mxGeometry width="50" height="50" relative="1" as="geometry">
            <mxPoint x="356" y="910" as="sourcePoint" />
            <mxPoint x="380" y="970" as="targetPoint" />
          </mxGeometry>
        </mxCell>
        <mxCell id="Ma2R47XXeUhrd2ViUQ3c-24" value="" style="endArrow=classic;startArrow=classic;html=1;rounded=0;exitX=1;exitY=1;exitDx=0;exitDy=0;entryX=0.31;entryY=0.8;entryDx=0;entryDy=0;entryPerimeter=0;fillColor=#d80073;strokeColor=#A50040;" edge="1" parent="1" source="Ma2R47XXeUhrd2ViUQ3c-39" target="Ma2R47XXeUhrd2ViUQ3c-46">
          <mxGeometry width="50" height="50" relative="1" as="geometry">
            <mxPoint x="190" y="970" as="sourcePoint" />
            <mxPoint x="-409" y="972" as="targetPoint" />
          </mxGeometry>
        </mxCell>
        <mxCell id="Ma2R47XXeUhrd2ViUQ3c-30" value="PDS2" style="whiteSpace=wrap;html=1;aspect=fixed;" vertex="1" parent="1">
          <mxGeometry x="-266" y="760" width="105" height="105" as="geometry" />
        </mxCell>
        <mxCell id="Ma2R47XXeUhrd2ViUQ3c-31" value="BlockchainPeer" style="rounded=0;whiteSpace=wrap;html=1;" vertex="1" parent="1">
          <mxGeometry x="-266" y="865" width="105" height="40" as="geometry" />
        </mxCell>
        <mxCell id="Ma2R47XXeUhrd2ViUQ3c-32" value="Account&lt;div&gt;Service&lt;/div&gt;" style="rounded=0;whiteSpace=wrap;html=1;" vertex="1" parent="1">
          <mxGeometry x="-221" y="760" width="60" height="40" as="geometry" />
        </mxCell>
        <mxCell id="Ma2R47XXeUhrd2ViUQ3c-33" value="PDS1" style="whiteSpace=wrap;html=1;aspect=fixed;" vertex="1" parent="1">
          <mxGeometry x="-559" y="760" width="105" height="105" as="geometry" />
        </mxCell>
        <mxCell id="Ma2R47XXeUhrd2ViUQ3c-34" value="BlockchainPeer" style="rounded=0;whiteSpace=wrap;html=1;" vertex="1" parent="1">
          <mxGeometry x="-559" y="865" width="105" height="40" as="geometry" />
        </mxCell>
        <mxCell id="Ma2R47XXeUhrd2ViUQ3c-105" style="edgeStyle=orthogonalEdgeStyle;rounded=0;orthogonalLoop=1;jettySize=auto;html=1;exitX=0.25;exitY=0;exitDx=0;exitDy=0;entryX=0.75;entryY=1;entryDx=0;entryDy=0;fillColor=#6a00ff;strokeColor=#3700CC;" edge="1" parent="1" source="Ma2R47XXeUhrd2ViUQ3c-35" target="Ma2R47XXeUhrd2ViUQ3c-49">
          <mxGeometry relative="1" as="geometry">
            <Array as="points">
              <mxPoint x="-499" y="700" />
              <mxPoint x="-1015" y="700" />
            </Array>
          </mxGeometry>
        </mxCell>
        <mxCell id="Ma2R47XXeUhrd2ViUQ3c-35" value="Account&lt;div&gt;Service&lt;/div&gt;" style="rounded=0;whiteSpace=wrap;html=1;" vertex="1" parent="1">
          <mxGeometry x="-514" y="760" width="60" height="40" as="geometry" />
        </mxCell>
        <mxCell id="Ma2R47XXeUhrd2ViUQ3c-104" style="edgeStyle=orthogonalEdgeStyle;rounded=0;orthogonalLoop=1;jettySize=auto;html=1;exitX=0;exitY=0.5;exitDx=0;exitDy=0;entryX=1;entryY=0.25;entryDx=0;entryDy=0;fillColor=#60a917;strokeColor=#2D7600;" edge="1" parent="1" source="Ma2R47XXeUhrd2ViUQ3c-36" target="Ma2R47XXeUhrd2ViUQ3c-50">
          <mxGeometry relative="1" as="geometry" />
        </mxCell>
        <mxCell id="Ma2R47XXeUhrd2ViUQ3c-36" value="BFF" style="rounded=0;whiteSpace=wrap;html=1;" vertex="1" parent="1">
          <mxGeometry x="-559" y="760" width="30" height="20" as="geometry" />
        </mxCell>
        <mxCell id="Ma2R47XXeUhrd2ViUQ3c-37" value="BFF" style="rounded=0;whiteSpace=wrap;html=1;" vertex="1" parent="1">
          <mxGeometry x="-266" y="760" width="30" height="20" as="geometry" />
        </mxCell>
        <mxCell id="Ma2R47XXeUhrd2ViUQ3c-38" value="PDS4" style="whiteSpace=wrap;html=1;aspect=fixed;" vertex="1" parent="1">
          <mxGeometry x="-610" y="960" width="105" height="105" as="geometry" />
        </mxCell>
        <mxCell id="Ma2R47XXeUhrd2ViUQ3c-39" value="BlockchainPeer" style="rounded=0;whiteSpace=wrap;html=1;" vertex="1" parent="1">
          <mxGeometry x="-610" y="1065" width="105" height="40" as="geometry" />
        </mxCell>
        <mxCell id="Ma2R47XXeUhrd2ViUQ3c-40" value="Account&lt;div&gt;Service&lt;/div&gt;" style="rounded=0;whiteSpace=wrap;html=1;" vertex="1" parent="1">
          <mxGeometry x="-565" y="960" width="60" height="40" as="geometry" />
        </mxCell>
        <mxCell id="Ma2R47XXeUhrd2ViUQ3c-41" value="BFF" style="rounded=0;whiteSpace=wrap;html=1;" vertex="1" parent="1">
          <mxGeometry x="-610" y="960" width="30" height="20" as="geometry" />
        </mxCell>
        <mxCell id="Ma2R47XXeUhrd2ViUQ3c-42" value="PDS3" style="whiteSpace=wrap;html=1;aspect=fixed;" vertex="1" parent="1">
          <mxGeometry x="-170" y="940" width="105" height="105" as="geometry" />
        </mxCell>
        <mxCell id="Ma2R47XXeUhrd2ViUQ3c-43" value="BlockchainPeer" style="rounded=0;whiteSpace=wrap;html=1;" vertex="1" parent="1">
          <mxGeometry x="-170" y="1045" width="105" height="40" as="geometry" />
        </mxCell>
        <mxCell id="Ma2R47XXeUhrd2ViUQ3c-44" value="Account&lt;div&gt;Service&lt;/div&gt;" style="rounded=0;whiteSpace=wrap;html=1;" vertex="1" parent="1">
          <mxGeometry x="-125" y="940" width="60" height="40" as="geometry" />
        </mxCell>
        <mxCell id="Ma2R47XXeUhrd2ViUQ3c-45" value="BFF" style="rounded=0;whiteSpace=wrap;html=1;" vertex="1" parent="1">
          <mxGeometry x="-170" y="940" width="30" height="20" as="geometry" />
        </mxCell>
        <mxCell id="Ma2R47XXeUhrd2ViUQ3c-46" value="Blockchain&lt;div&gt;network&lt;/div&gt;" style="ellipse;shape=cloud;whiteSpace=wrap;html=1;" vertex="1" parent="1">
          <mxGeometry x="-425" y="910" width="120" height="80" as="geometry" />
        </mxCell>
        <mxCell id="Ma2R47XXeUhrd2ViUQ3c-47" value="Orbis&lt;div&gt;Socialis 2&lt;/div&gt;" style="whiteSpace=wrap;html=1;aspect=fixed;" vertex="1" parent="1">
          <mxGeometry x="-1060" y="481" width="140" height="140" as="geometry" />
        </mxCell>
        <mxCell id="Ma2R47XXeUhrd2ViUQ3c-95" style="edgeStyle=orthogonalEdgeStyle;rounded=0;orthogonalLoop=1;jettySize=auto;html=1;exitX=0.75;exitY=0;exitDx=0;exitDy=0;entryX=0.75;entryY=1;entryDx=0;entryDy=0;fillColor=#d80073;strokeColor=#A50040;" edge="1" parent="1" source="Ma2R47XXeUhrd2ViUQ3c-48" target="Ma2R47XXeUhrd2ViUQ3c-90">
          <mxGeometry relative="1" as="geometry">
            <Array as="points">
              <mxPoint x="-1015" y="461" />
              <mxPoint x="-890" y="461" />
              <mxPoint x="-890" y="899" />
              <mxPoint x="-940" y="899" />
            </Array>
          </mxGeometry>
        </mxCell>
        <mxCell id="Ma2R47XXeUhrd2ViUQ3c-98" style="edgeStyle=orthogonalEdgeStyle;rounded=0;orthogonalLoop=1;jettySize=auto;html=1;exitX=0.5;exitY=0;exitDx=0;exitDy=0;entryX=0.5;entryY=1;entryDx=0;entryDy=0;fillColor=#d80073;strokeColor=#A50040;" edge="1" parent="1" source="Ma2R47XXeUhrd2ViUQ3c-48" target="Ma2R47XXeUhrd2ViUQ3c-80">
          <mxGeometry relative="1" as="geometry">
            <Array as="points">
              <mxPoint x="-1030" y="450" />
              <mxPoint x="-1240" y="450" />
              <mxPoint x="-1240" y="640" />
              <mxPoint x="-1300" y="640" />
            </Array>
          </mxGeometry>
        </mxCell>
        <mxCell id="Ma2R47XXeUhrd2ViUQ3c-99" style="edgeStyle=orthogonalEdgeStyle;rounded=0;orthogonalLoop=1;jettySize=auto;html=1;exitX=0.25;exitY=0;exitDx=0;exitDy=0;entryX=0.25;entryY=1;entryDx=0;entryDy=0;fillColor=#d80073;strokeColor=#A50040;" edge="1" parent="1" source="Ma2R47XXeUhrd2ViUQ3c-48" target="Ma2R47XXeUhrd2ViUQ3c-85">
          <mxGeometry relative="1" as="geometry">
            <Array as="points">
              <mxPoint x="-1045" y="440" />
              <mxPoint x="-1440" y="440" />
              <mxPoint x="-1440" y="899" />
              <mxPoint x="-1319" y="899" />
            </Array>
          </mxGeometry>
        </mxCell>
        <mxCell id="Ma2R47XXeUhrd2ViUQ3c-115" style="edgeStyle=orthogonalEdgeStyle;rounded=0;orthogonalLoop=1;jettySize=auto;html=1;exitX=0;exitY=0.25;exitDx=0;exitDy=0;entryX=0;entryY=0.25;entryDx=0;entryDy=0;fillColor=#e3c800;strokeColor=#B09500;" edge="1" parent="1" source="Ma2R47XXeUhrd2ViUQ3c-48" target="Ma2R47XXeUhrd2ViUQ3c-34">
          <mxGeometry relative="1" as="geometry">
            <Array as="points">
              <mxPoint x="-1080" y="489" />
              <mxPoint x="-1080" y="420" />
              <mxPoint x="-700" y="420" />
              <mxPoint x="-700" y="480" />
              <mxPoint x="-630" y="480" />
              <mxPoint x="-630" y="875" />
            </Array>
          </mxGeometry>
        </mxCell>
        <mxCell id="Ma2R47XXeUhrd2ViUQ3c-116" style="edgeStyle=orthogonalEdgeStyle;rounded=0;orthogonalLoop=1;jettySize=auto;html=1;exitX=0;exitY=0.5;exitDx=0;exitDy=0;entryX=0.5;entryY=0;entryDx=0;entryDy=0;fillColor=#e3c800;strokeColor=#B09500;" edge="1" parent="1" source="Ma2R47XXeUhrd2ViUQ3c-48" target="Ma2R47XXeUhrd2ViUQ3c-35">
          <mxGeometry relative="1" as="geometry">
            <Array as="points">
              <mxPoint x="-1100" y="496" />
              <mxPoint x="-1100" y="400" />
              <mxPoint x="-690" y="400" />
              <mxPoint x="-690" y="470" />
              <mxPoint x="-620" y="470" />
              <mxPoint x="-620" y="680" />
              <mxPoint x="-484" y="680" />
            </Array>
          </mxGeometry>
        </mxCell>
        <mxCell id="Ma2R47XXeUhrd2ViUQ3c-48" value="Crawler" style="rounded=0;whiteSpace=wrap;html=1;" vertex="1" parent="1">
          <mxGeometry x="-1060" y="481" width="60" height="30" as="geometry" />
        </mxCell>
        <mxCell id="Ma2R47XXeUhrd2ViUQ3c-49" value="Ingress&lt;div&gt;Service&lt;/div&gt;" style="rounded=0;whiteSpace=wrap;html=1;" vertex="1" parent="1">
          <mxGeometry x="-1060" y="581" width="60" height="40" as="geometry" />
        </mxCell>
        <mxCell id="Ma2R47XXeUhrd2ViUQ3c-50" value="API Gateway" style="rounded=0;whiteSpace=wrap;html=1;" vertex="1" parent="1">
          <mxGeometry x="-1000" y="601" width="80" height="20" as="geometry" />
        </mxCell>
        <mxCell id="Ma2R47XXeUhrd2ViUQ3c-52" value="Admin" style="rounded=0;whiteSpace=wrap;html=1;" vertex="1" parent="1">
          <mxGeometry x="-1060" y="531" width="50" height="20" as="geometry" />
        </mxCell>
        <mxCell id="Ma2R47XXeUhrd2ViUQ3c-53" value="Admin" style="rounded=0;whiteSpace=wrap;html=1;" vertex="1" parent="1">
          <mxGeometry x="-559" y="845" width="50" height="20" as="geometry" />
        </mxCell>
        <mxCell id="Ma2R47XXeUhrd2ViUQ3c-54" value="Admin" style="rounded=0;whiteSpace=wrap;html=1;" vertex="1" parent="1">
          <mxGeometry x="-266" y="845" width="50" height="20" as="geometry" />
        </mxCell>
        <mxCell id="Ma2R47XXeUhrd2ViUQ3c-55" value="Admin" style="rounded=0;whiteSpace=wrap;html=1;" vertex="1" parent="1">
          <mxGeometry x="-610" y="1045" width="50" height="20" as="geometry" />
        </mxCell>
        <mxCell id="Ma2R47XXeUhrd2ViUQ3c-56" value="Admin" style="rounded=0;whiteSpace=wrap;html=1;" vertex="1" parent="1">
          <mxGeometry x="-170" y="1025" width="50" height="20" as="geometry" />
        </mxCell>
        <mxCell id="Ma2R47XXeUhrd2ViUQ3c-77" value="Orbis&lt;div&gt;Socialis 1&lt;/div&gt;" style="whiteSpace=wrap;html=1;aspect=fixed;" vertex="1" parent="1">
          <mxGeometry x="-1400" y="480" width="140" height="140" as="geometry" />
        </mxCell>
        <mxCell id="Ma2R47XXeUhrd2ViUQ3c-92" style="edgeStyle=orthogonalEdgeStyle;rounded=0;orthogonalLoop=1;jettySize=auto;html=1;exitX=0.75;exitY=0;exitDx=0;exitDy=0;entryX=0.25;entryY=1;entryDx=0;entryDy=0;fillColor=#d80073;strokeColor=#A50040;" edge="1" parent="1" source="Ma2R47XXeUhrd2ViUQ3c-78" target="Ma2R47XXeUhrd2ViUQ3c-50">
          <mxGeometry relative="1" as="geometry" />
        </mxCell>
        <mxCell id="Ma2R47XXeUhrd2ViUQ3c-100" style="edgeStyle=orthogonalEdgeStyle;rounded=0;orthogonalLoop=1;jettySize=auto;html=1;exitX=0.5;exitY=0;exitDx=0;exitDy=0;entryX=0.5;entryY=1;entryDx=0;entryDy=0;fillColor=#d80073;strokeColor=#A50040;" edge="1" parent="1" source="Ma2R47XXeUhrd2ViUQ3c-78" target="Ma2R47XXeUhrd2ViUQ3c-85">
          <mxGeometry relative="1" as="geometry">
            <Array as="points">
              <mxPoint x="-1370" y="460" />
              <mxPoint x="-1460" y="460" />
              <mxPoint x="-1460" y="920" />
              <mxPoint x="-1299" y="920" />
            </Array>
          </mxGeometry>
        </mxCell>
        <mxCell id="Ma2R47XXeUhrd2ViUQ3c-101" style="edgeStyle=orthogonalEdgeStyle;rounded=0;orthogonalLoop=1;jettySize=auto;html=1;exitX=0.25;exitY=0;exitDx=0;exitDy=0;entryX=0.5;entryY=1;entryDx=0;entryDy=0;fillColor=#d80073;strokeColor=#A50040;" edge="1" parent="1" source="Ma2R47XXeUhrd2ViUQ3c-78" target="Ma2R47XXeUhrd2ViUQ3c-90">
          <mxGeometry relative="1" as="geometry">
            <Array as="points">
              <mxPoint x="-1385" y="450" />
              <mxPoint x="-1480" y="450" />
              <mxPoint x="-1480" y="930" />
              <mxPoint x="-960" y="930" />
            </Array>
          </mxGeometry>
        </mxCell>
        <mxCell id="Ma2R47XXeUhrd2ViUQ3c-78" value="Crawler" style="rounded=0;whiteSpace=wrap;html=1;" vertex="1" parent="1">
          <mxGeometry x="-1400" y="480" width="60" height="30" as="geometry" />
        </mxCell>
        <mxCell id="Ma2R47XXeUhrd2ViUQ3c-79" value="Ingress&lt;div&gt;Service&lt;/div&gt;" style="rounded=0;whiteSpace=wrap;html=1;" vertex="1" parent="1">
          <mxGeometry x="-1400" y="580" width="60" height="40" as="geometry" />
        </mxCell>
        <mxCell id="Ma2R47XXeUhrd2ViUQ3c-80" value="API Gateway" style="rounded=0;whiteSpace=wrap;html=1;" vertex="1" parent="1">
          <mxGeometry x="-1340" y="600" width="80" height="20" as="geometry" />
        </mxCell>
        <mxCell id="Ma2R47XXeUhrd2ViUQ3c-81" value="Admin" style="rounded=0;whiteSpace=wrap;html=1;" vertex="1" parent="1">
          <mxGeometry x="-1400" y="530" width="50" height="20" as="geometry" />
        </mxCell>
        <mxCell id="Ma2R47XXeUhrd2ViUQ3c-82" value="Orbis&lt;div&gt;Socialis 4&lt;/div&gt;" style="whiteSpace=wrap;html=1;aspect=fixed;" vertex="1" parent="1">
          <mxGeometry x="-1399" y="739" width="140" height="140" as="geometry" />
        </mxCell>
        <mxCell id="Ma2R47XXeUhrd2ViUQ3c-93" style="edgeStyle=orthogonalEdgeStyle;rounded=0;orthogonalLoop=1;jettySize=auto;html=1;exitX=0.75;exitY=0;exitDx=0;exitDy=0;entryX=0.25;entryY=1;entryDx=0;entryDy=0;fillColor=#d80073;strokeColor=#A50040;" edge="1" parent="1" source="Ma2R47XXeUhrd2ViUQ3c-83" target="Ma2R47XXeUhrd2ViUQ3c-90">
          <mxGeometry relative="1" as="geometry" />
        </mxCell>
        <mxCell id="Ma2R47XXeUhrd2ViUQ3c-94" style="edgeStyle=orthogonalEdgeStyle;rounded=0;orthogonalLoop=1;jettySize=auto;html=1;exitX=0.5;exitY=0;exitDx=0;exitDy=0;entryX=0.5;entryY=1;entryDx=0;entryDy=0;fillColor=#d80073;strokeColor=#A50040;" edge="1" parent="1" source="Ma2R47XXeUhrd2ViUQ3c-83" target="Ma2R47XXeUhrd2ViUQ3c-50">
          <mxGeometry relative="1" as="geometry" />
        </mxCell>
        <mxCell id="Ma2R47XXeUhrd2ViUQ3c-97" style="edgeStyle=orthogonalEdgeStyle;rounded=0;orthogonalLoop=1;jettySize=auto;html=1;exitX=0.25;exitY=0;exitDx=0;exitDy=0;entryX=0.25;entryY=1;entryDx=0;entryDy=0;fillColor=#d80073;strokeColor=#A50040;" edge="1" parent="1" source="Ma2R47XXeUhrd2ViUQ3c-83" target="Ma2R47XXeUhrd2ViUQ3c-80">
          <mxGeometry relative="1" as="geometry">
            <Array as="points">
              <mxPoint x="-1384" y="630" />
              <mxPoint x="-1320" y="630" />
            </Array>
          </mxGeometry>
        </mxCell>
        <mxCell id="Ma2R47XXeUhrd2ViUQ3c-83" value="Crawler" style="rounded=0;whiteSpace=wrap;html=1;" vertex="1" parent="1">
          <mxGeometry x="-1399" y="739" width="60" height="30" as="geometry" />
        </mxCell>
        <mxCell id="Ma2R47XXeUhrd2ViUQ3c-84" value="Ingress&lt;div&gt;Service&lt;/div&gt;" style="rounded=0;whiteSpace=wrap;html=1;" vertex="1" parent="1">
          <mxGeometry x="-1399" y="839" width="60" height="40" as="geometry" />
        </mxCell>
        <mxCell id="Ma2R47XXeUhrd2ViUQ3c-85" value="API Gateway" style="rounded=0;whiteSpace=wrap;html=1;" vertex="1" parent="1">
          <mxGeometry x="-1339" y="859" width="80" height="20" as="geometry" />
        </mxCell>
        <mxCell id="Ma2R47XXeUhrd2ViUQ3c-86" value="Admin" style="rounded=0;whiteSpace=wrap;html=1;" vertex="1" parent="1">
          <mxGeometry x="-1399" y="789" width="50" height="20" as="geometry" />
        </mxCell>
        <mxCell id="Ma2R47XXeUhrd2ViUQ3c-87" value="Orbis&lt;div&gt;Socialis 3&lt;/div&gt;" style="whiteSpace=wrap;html=1;aspect=fixed;" vertex="1" parent="1">
          <mxGeometry x="-1060" y="739" width="140" height="140" as="geometry" />
        </mxCell>
        <mxCell id="Ma2R47XXeUhrd2ViUQ3c-96" style="edgeStyle=orthogonalEdgeStyle;rounded=0;orthogonalLoop=1;jettySize=auto;html=1;exitX=0;exitY=0.5;exitDx=0;exitDy=0;entryX=0.75;entryY=1;entryDx=0;entryDy=0;fillColor=#d80073;strokeColor=#A50040;" edge="1" parent="1" source="Ma2R47XXeUhrd2ViUQ3c-88" target="Ma2R47XXeUhrd2ViUQ3c-85">
          <mxGeometry relative="1" as="geometry">
            <Array as="points">
              <mxPoint x="-1240" y="754" />
              <mxPoint x="-1240" y="910" />
              <mxPoint x="-1279" y="910" />
            </Array>
          </mxGeometry>
        </mxCell>
        <mxCell id="Ma2R47XXeUhrd2ViUQ3c-102" style="edgeStyle=orthogonalEdgeStyle;rounded=0;orthogonalLoop=1;jettySize=auto;html=1;exitX=0.25;exitY=0;exitDx=0;exitDy=0;entryX=0.75;entryY=1;entryDx=0;entryDy=0;fillColor=#d80073;strokeColor=#A50040;" edge="1" parent="1" source="Ma2R47XXeUhrd2ViUQ3c-88" target="Ma2R47XXeUhrd2ViUQ3c-80">
          <mxGeometry relative="1" as="geometry">
            <Array as="points">
              <mxPoint x="-1045" y="690" />
              <mxPoint x="-1280" y="690" />
            </Array>
          </mxGeometry>
        </mxCell>
        <mxCell id="Ma2R47XXeUhrd2ViUQ3c-103" style="edgeStyle=orthogonalEdgeStyle;rounded=0;orthogonalLoop=1;jettySize=auto;html=1;exitX=0.5;exitY=0;exitDx=0;exitDy=0;entryX=0.75;entryY=1;entryDx=0;entryDy=0;fillColor=#d80073;strokeColor=#A50040;" edge="1" parent="1" source="Ma2R47XXeUhrd2ViUQ3c-88" target="Ma2R47XXeUhrd2ViUQ3c-50">
          <mxGeometry relative="1" as="geometry">
            <Array as="points">
              <mxPoint x="-1030" y="690" />
              <mxPoint x="-940" y="690" />
            </Array>
          </mxGeometry>
        </mxCell>
        <mxCell id="Ma2R47XXeUhrd2ViUQ3c-88" value="Crawler" style="rounded=0;whiteSpace=wrap;html=1;" vertex="1" parent="1">
          <mxGeometry x="-1060" y="739" width="60" height="30" as="geometry" />
        </mxCell>
        <mxCell id="Ma2R47XXeUhrd2ViUQ3c-89" value="Ingress&lt;div&gt;Service&lt;/div&gt;" style="rounded=0;whiteSpace=wrap;html=1;" vertex="1" parent="1">
          <mxGeometry x="-1060" y="839" width="60" height="40" as="geometry" />
        </mxCell>
        <mxCell id="Ma2R47XXeUhrd2ViUQ3c-90" value="API Gateway" style="rounded=0;whiteSpace=wrap;html=1;" vertex="1" parent="1">
          <mxGeometry x="-1000" y="859" width="80" height="20" as="geometry" />
        </mxCell>
        <mxCell id="Ma2R47XXeUhrd2ViUQ3c-91" value="Admin" style="rounded=0;whiteSpace=wrap;html=1;" vertex="1" parent="1">
          <mxGeometry x="-1060" y="789" width="50" height="20" as="geometry" />
        </mxCell>
        <mxCell id="Ma2R47XXeUhrd2ViUQ3c-108" value="Noosphere" style="shape=hexagon;perimeter=hexagonPerimeter2;whiteSpace=wrap;html=1;fixedSize=1;" vertex="1" parent="1">
          <mxGeometry x="-544" y="170" width="120" height="80" as="geometry" />
        </mxCell>
        <mxCell id="Ma2R47XXeUhrd2ViUQ3c-117" value="Plugin&lt;div&gt;Store&lt;/div&gt;" style="whiteSpace=wrap;html=1;aspect=fixed;" vertex="1" parent="1">
          <mxGeometry x="-580" y="410" width="80" height="80" as="geometry" />
        </mxCell>
      </root>
    </mxGraphModel>
  </diagram>
</mxfile>
